<svg xmlns="http://www.w3.org/2000/svg" viewBox="0 0 1440 900" width="1440" height="900" font-family="'Segoe UI', 'Helvetica Neue', Arial, sans-serif"><rect x="0" y="0" width="1440" height="900" rx="0" fill="#ffffff" stroke="none" stroke-width="1" /><rect x="0" y="0" width="1440" height="56" rx="0" fill="#fbfbfc" stroke="#c3c8d0" stroke-width="1" /><rect x="20" y="16" width="120" height="24" rx="4" fill="#e6e8ec" stroke="#c3c8d0" stroke-width="1" /><text x="80" y="32" font-family="'Segoe UI', 'Helvetica Neue', Arial, sans-serif" font-size="12" fill="#2b2f36" font-weight="700" text-anchor="middle" >GLOBE · EMS</text><text x="170" y="26" font-family="'Segoe UI', 'Helvetica Neue', Arial, sans-serif" font-size="9" fill="#9aa1ac" font-weight="normal" text-anchor="start" >Perfil activo</text><rect x="170" y="30" width="200" height="20" rx="4" fill="#e7ecf1" stroke="#5b7089" stroke-width="1" /><text x="180" y="44" font-family="'Segoe UI', 'Helvetica Neue', Arial, sans-serif" font-size="11.5" fill="#5b7089" font-weight="600" text-anchor="start" >Auditor  ▾</text><text x="390" y="44" font-family="'Segoe UI', 'Helvetica Neue', Arial, sans-serif" font-size="10" fill="#9aa1ac" font-weight="normal" text-anchor="start" >MFA obligatorio · solo lectura</text><text x="1410" y="26" font-family="'Segoe UI', 'Helvetica Neue', Arial, sans-serif" font-size="10.5" fill="#6b7280" font-weight="normal" text-anchor="end" >nmatus@grupoglobe.com</text><text x="1410" y="42" font-family="'Segoe UI', 'Helvetica Neue', Arial, sans-serif" font-size="9" fill="#9aa1ac" font-weight="normal" text-anchor="end" >Sesión: 15 min inactividad (CYB-06)</text><circle cx="1420" cy="20" r="9" fill="#e6e8ec" stroke="#c3c8d0" stroke-width="0.8"/><rect x="0" y="56" width="240" height="844" rx="0" fill="#fafbfc" stroke="#c3c8d0" stroke-width="1" /><text x="20" y="84" font-family="'Segoe UI', 'Helvetica Neue', Arial, sans-serif" font-size="10" fill="#9aa1ac" font-weight="700" text-anchor="start" >MENÚ · AUDITOR</text><text x="22" y="120" font-family="'Segoe UI', 'Helvetica Neue', Arial, sans-serif" font-size="12" fill="#6b7280" font-weight="normal" text-anchor="start" >Calidad de datos</text><text x="22" y="154" font-family="'Segoe UI', 'Helvetica Neue', Arial, sans-serif" font-size="12" fill="#6b7280" font-weight="normal" text-anchor="start" >Cuadratura de agregación</text><text x="22" y="188" font-family="'Segoe UI', 'Helvetica Neue', Arial, sans-serif" font-size="12" fill="#6b7280" font-weight="normal" text-anchor="start" >Pista de auditoría</text><text x="22" y="222" font-family="'Segoe UI', 'Helvetica Neue', Arial, sans-serif" font-size="12" fill="#6b7280" font-weight="normal" text-anchor="start" >Trazabilidad / lineage</text><rect x="8" y="236" width="224" height="30" rx="5" fill="#e7ecf1" stroke="none" stroke-width="1" /><rect x="8" y="236" width="3" height="30" rx="0" fill="#5b7089" stroke="none" stroke-width="1" /><text x="22" y="256" font-family="'Segoe UI', 'Helvetica Neue', Arial, sans-serif" font-size="12" fill="#5b7089" font-weight="700" text-anchor="start" >Datos crudos (raw)</text><text x="22" y="290" font-family="'Segoe UI', 'Helvetica Neue', Arial, sans-serif" font-size="12" fill="#6b7280" font-weight="normal" text-anchor="start" >Exportar evidencia</text><text x="20" y="880" font-family="'Segoe UI', 'Helvetica Neue', Arial, sans-serif" font-size="9" fill="#9aa1ac" font-weight="normal" text-anchor="start" >PASA · Anexo 07</text><text x="264" y="88" font-family="'Segoe UI', 'Helvetica Neue', Arial, sans-serif" font-size="20" fill="#2b2f36" font-weight="700" text-anchor="start" >6.5  Datos crudos (raw)</text><rect x="1298" y="74" width="118" height="22" rx="11" fill="#ffffff" stroke="#c3c8d0" stroke-width="1" /><text x="1357" y="89" font-family="'Segoe UI', 'Helvetica Neue', Arial, sans-serif" font-size="10" fill="#6b7280" font-weight="normal" text-anchor="middle" >Escritorio · 1440×900</text><text x="264" y="110" font-family="'Segoe UI', 'Helvetica Neue', Arial, sans-serif" font-size="12" fill="#6b7280" font-weight="normal" text-anchor="start" >Vista previa y extracción total de datos crudos · PASA es dueño de la data (DAT-07)</text><rect x="264" y="124" width="1152" height="42" rx="6" fill="#f7f8fa" stroke="#c3c8d0" stroke-width="1" /><text x="276" y="150" font-family="'Segoe UI', 'Helvetica Neue', Arial, sans-serif" font-size="11" fill="#6b7280" font-weight="700" text-anchor="start" >Filtros:</text><text x="336" y="150" font-family="'Segoe UI', 'Helvetica Neue', Arial, sans-serif" font-size="10.5" fill="#9aa1ac" font-weight="normal" text-anchor="start" >(esta pantalla no declara filtros en el informe)</text><rect x="264.0" y="184" width="1152.0" height="356" rx="6" fill="#f3f4f6" stroke="#c3c8d0" stroke-width="1" /><text x="276.0" y="202" font-family="'Segoe UI', 'Helvetica Neue', Arial, sans-serif" font-size="13" fill="#2b2f36" font-weight="700" text-anchor="start" >Vista previa de datos raw</text><text x="276.0" y="219" font-family="'Segoe UI', 'Helvetica Neue', Arial, sans-serif" font-size="11" fill="#6b7280" font-weight="normal" text-anchor="start" >Primeras 100 filas · sin transformar · solo lectura</text><rect x="276.0" y="228" width="1128.0" height="23.23076923076923" rx="3" fill="#e6e8ec" stroke="#c3c8d0" stroke-width="0.8" /><text x="282.0" y="243.3323076923077" font-family="'Segoe UI', 'Helvetica Neue', Arial, sans-serif" font-size="10.5" fill="#2b2f36" font-weight="700" text-anchor="start" >Timestamp UTC</text><text x="507.6" y="243.3323076923077" font-family="'Segoe UI', 'Helvetica Neue', Arial, sans-serif" font-size="10.5" fill="#2b2f36" font-weight="700" text-anchor="start" >Valor raw</text><text x="733.2" y="243.3323076923077" font-family="'Segoe UI', 'Helvetica Neue', Arial, sans-serif" font-size="10.5" fill="#2b2f36" font-weight="700" text-anchor="start" >Unidad</text><text x="958.8" y="243.3323076923077" font-family="'Segoe UI', 'Helvetica Neue', Arial, sans-serif" font-size="10.5" fill="#2b2f36" font-weight="700" text-anchor="start" >Flag calidad</text><text x="1184.4" y="243.3323076923077" font-family="'Segoe UI', 'Helvetica Neue', Arial, sans-serif" font-size="10.5" fill="#2b2f36" font-weight="700" text-anchor="start" >Flag anomalía</text><rect x="276.0" y="251.23076923076923" width="1128.0" height="23.23076923076923" rx="0" fill="#fbfbfc" stroke="#d9dce1" stroke-width="0.5" /><circle cx="286.0" cy="262.84615384615387" r="4" fill="#c9ced6" stroke="#c3c8d0" stroke-width="0.8"/><rect x="296.0" y="259.84615384615387" width="195.6" height="6" rx="2" fill="#f3f4f6" stroke="none" stroke-width="1" /><rect x="507.6" y="259.84615384615387" width="211.6" height="6" rx="2" fill="#f3f4f6" stroke="none" stroke-width="1" /><rect x="733.2" y="259.84615384615387" width="211.6" height="6" rx="2" fill="#f3f4f6" stroke="none" stroke-width="1" /><rect x="958.8" y="259.84615384615387" width="211.6" height="6" rx="2" fill="#f3f4f6" stroke="none" stroke-width="1" /><rect x="1184.4" y="259.84615384615387" width="211.6" height="6" rx="2" fill="#f3f4f6" stroke="none" stroke-width="1" /><rect x="276.0" y="274.46153846153845" width="1128.0" height="23.23076923076923" rx="0" fill="#ffffff" stroke="#d9dce1" stroke-width="0.5" /><circle cx="286.0" cy="286.0769230769231" r="4" fill="#4b5059" stroke="#c3c8d0" stroke-width="0.8"/><rect x="296.0" y="283.0769230769231" width="195.6" height="6" rx="2" fill="#f3f4f6" stroke="none" stroke-width="1" /><rect x="507.6" y="283.0769230769231" width="211.6" height="6" rx="2" fill="#f3f4f6" stroke="none" stroke-width="1" /><rect x="733.2" y="283.0769230769231" width="211.6" height="6" rx="2" fill="#f3f4f6" stroke="none" stroke-width="1" /><rect x="958.8" y="283.0769230769231" width="211.6" height="6" rx="2" fill="#f3f4f6" stroke="none" stroke-width="1" /><rect x="1184.4" y="283.0769230769231" width="211.6" height="6" rx="2" fill="#f3f4f6" stroke="none" stroke-width="1" /><rect x="276.0" y="297.6923076923077" width="1128.0" height="23.23076923076923" rx="0" fill="#fbfbfc" stroke="#d9dce1" stroke-width="0.5" /><circle cx="286.0" cy="309.3076923076923" r="4" fill="#9aa1ac" stroke="#c3c8d0" stroke-width="0.8"/><rect x="296.0" y="306.3076923076923" width="195.6" height="6" rx="2" fill="#f3f4f6" stroke="none" stroke-width="1" /><rect x="507.6" y="306.3076923076923" width="211.6" height="6" rx="2" fill="#f3f4f6" stroke="none" stroke-width="1" /><rect x="733.2" y="306.3076923076923" width="211.6" height="6" rx="2" fill="#f3f4f6" stroke="none" stroke-width="1" /><rect x="958.8" y="306.3076923076923" width="211.6" height="6" rx="2" fill="#f3f4f6" stroke="none" stroke-width="1" /><rect x="1184.4" y="306.3076923076923" width="211.6" height="6" rx="2" fill="#f3f4f6" stroke="none" stroke-width="1" /><rect x="276.0" y="320.9230769230769" width="1128.0" height="23.23076923076923" rx="0" fill="#ffffff" stroke="#d9dce1" stroke-width="0.5" /><circle cx="286.0" cy="332.53846153846155" r="4" fill="#c9ced6" stroke="#c3c8d0" stroke-width="0.8"/><rect x="296.0" y="329.53846153846155" width="195.6" height="6" rx="2" fill="#f3f4f6" stroke="none" stroke-width="1" /><rect x="507.6" y="329.53846153846155" width="211.6" height="6" rx="2" fill="#f3f4f6" stroke="none" stroke-width="1" /><rect x="733.2" y="329.53846153846155" width="211.6" height="6" rx="2" fill="#f3f4f6" stroke="none" stroke-width="1" /><rect x="958.8" y="329.53846153846155" width="211.6" height="6" rx="2" fill="#f3f4f6" stroke="none" stroke-width="1" /><rect x="1184.4" y="329.53846153846155" width="211.6" height="6" rx="2" fill="#f3f4f6" stroke="none" stroke-width="1" /><rect x="276.0" y="344.15384615384613" width="1128.0" height="23.23076923076923" rx="0" fill="#fbfbfc" stroke="#d9dce1" stroke-width="0.5" /><circle cx="286.0" cy="355.7692307692308" r="4" fill="#eceef1" stroke="#c3c8d0" stroke-width="0.8"/><rect x="296.0" y="352.7692307692308" width="195.6" height="6" rx="2" fill="#f3f4f6" stroke="none" stroke-width="1" /><rect x="507.6" y="352.7692307692308" width="211.6" height="6" rx="2" fill="#f3f4f6" stroke="none" stroke-width="1" /><rect x="733.2" y="352.7692307692308" width="211.6" height="6" rx="2" fill="#f3f4f6" stroke="none" stroke-width="1" /><rect x="958.8" y="352.7692307692308" width="211.6" height="6" rx="2" fill="#f3f4f6" stroke="none" stroke-width="1" /><rect x="1184.4" y="352.7692307692308" width="211.6" height="6" rx="2" fill="#f3f4f6" stroke="none" stroke-width="1" /><rect x="276.0" y="367.38461538461536" width="1128.0" height="23.23076923076923" rx="0" fill="#ffffff" stroke="#d9dce1" stroke-width="0.5" /><circle cx="286.0" cy="379.0" r="4" fill="#c9ced6" stroke="#c3c8d0" stroke-width="0.8"/><rect x="296.0" y="376.0" width="195.6" height="6" rx="2" fill="#f3f4f6" stroke="none" stroke-width="1" /><rect x="507.6" y="376.0" width="211.6" height="6" rx="2" fill="#f3f4f6" stroke="none" stroke-width="1" /><rect x="733.2" y="376.0" width="211.6" height="6" rx="2" fill="#f3f4f6" stroke="none" stroke-width="1" /><rect x="958.8" y="376.0" width="211.6" height="6" rx="2" fill="#f3f4f6" stroke="none" stroke-width="1" /><rect x="1184.4" y="376.0" width="211.6" height="6" rx="2" fill="#f3f4f6" stroke="none" stroke-width="1" /><rect x="276.0" y="390.61538461538464" width="1128.0" height="23.23076923076923" rx="0" fill="#fbfbfc" stroke="#d9dce1" stroke-width="0.5" /><circle cx="286.0" cy="402.2307692307693" r="4" fill="#4b5059" stroke="#c3c8d0" stroke-width="0.8"/><rect x="296.0" y="399.2307692307693" width="195.6" height="6" rx="2" fill="#f3f4f6" stroke="none" stroke-width="1" /><rect x="507.6" y="399.2307692307693" width="211.6" height="6" rx="2" fill="#f3f4f6" stroke="none" stroke-width="1" /><rect x="733.2" y="399.2307692307693" width="211.6" height="6" rx="2" fill="#f3f4f6" stroke="none" stroke-width="1" /><rect x="958.8" y="399.2307692307693" width="211.6" height="6" rx="2" fill="#f3f4f6" stroke="none" stroke-width="1" /><rect x="1184.4" y="399.2307692307693" width="211.6" height="6" rx="2" fill="#f3f4f6" stroke="none" stroke-width="1" /><rect x="276.0" y="413.8461538461538" width="1128.0" height="23.23076923076923" rx="0" fill="#ffffff" stroke="#d9dce1" stroke-width="0.5" /><circle cx="286.0" cy="425.46153846153845" r="4" fill="#9aa1ac" stroke="#c3c8d0" stroke-width="0.8"/><rect x="296.0" y="422.46153846153845" width="195.6" height="6" rx="2" fill="#f3f4f6" stroke="none" stroke-width="1" /><rect x="507.6" y="422.46153846153845" width="211.6" height="6" rx="2" fill="#f3f4f6" stroke="none" stroke-width="1" /><rect x="733.2" y="422.46153846153845" width="211.6" height="6" rx="2" fill="#f3f4f6" stroke="none" stroke-width="1" /><rect x="958.8" y="422.46153846153845" width="211.6" height="6" rx="2" fill="#f3f4f6" stroke="none" stroke-width="1" /><rect x="1184.4" y="422.46153846153845" width="211.6" height="6" rx="2" fill="#f3f4f6" stroke="none" stroke-width="1" /><rect x="276.0" y="437.0769230769231" width="1128.0" height="23.23076923076923" rx="0" fill="#fbfbfc" stroke="#d9dce1" stroke-width="0.5" /><circle cx="286.0" cy="448.69230769230774" r="4" fill="#c9ced6" stroke="#c3c8d0" stroke-width="0.8"/><rect x="296.0" y="445.69230769230774" width="195.6" height="6" rx="2" fill="#f3f4f6" stroke="none" stroke-width="1" /><rect x="507.6" y="445.69230769230774" width="211.6" height="6" rx="2" fill="#f3f4f6" stroke="none" stroke-width="1" /><rect x="733.2" y="445.69230769230774" width="211.6" height="6" rx="2" fill="#f3f4f6" stroke="none" stroke-width="1" /><rect x="958.8" y="445.69230769230774" width="211.6" height="6" rx="2" fill="#f3f4f6" stroke="none" stroke-width="1" /><rect x="1184.4" y="445.69230769230774" width="211.6" height="6" rx="2" fill="#f3f4f6" stroke="none" stroke-width="1" /><rect x="276.0" y="460.30769230769226" width="1128.0" height="23.23076923076923" rx="0" fill="#ffffff" stroke="#d9dce1" stroke-width="0.5" /><circle cx="286.0" cy="471.9230769230769" r="4" fill="#eceef1" stroke="#c3c8d0" stroke-width="0.8"/><rect x="296.0" y="468.9230769230769" width="195.6" height="6" rx="2" fill="#f3f4f6" stroke="none" stroke-width="1" /><rect x="507.6" y="468.9230769230769" width="211.6" height="6" rx="2" fill="#f3f4f6" stroke="none" stroke-width="1" /><rect x="733.2" y="468.9230769230769" width="211.6" height="6" rx="2" fill="#f3f4f6" stroke="none" stroke-width="1" /><rect x="958.8" y="468.9230769230769" width="211.6" height="6" rx="2" fill="#f3f4f6" stroke="none" stroke-width="1" /><rect x="1184.4" y="468.9230769230769" width="211.6" height="6" rx="2" fill="#f3f4f6" stroke="none" stroke-width="1" /><rect x="276.0" y="483.53846153846155" width="1128.0" height="23.23076923076923" rx="0" fill="#fbfbfc" stroke="#d9dce1" stroke-width="0.5" /><circle cx="286.0" cy="495.1538461538462" r="4" fill="#c9ced6" stroke="#c3c8d0" stroke-width="0.8"/><rect x="296.0" y="492.1538461538462" width="195.6" height="6" rx="2" fill="#f3f4f6" stroke="none" stroke-width="1" /><rect x="507.6" y="492.1538461538462" width="211.6" height="6" rx="2" fill="#f3f4f6" stroke="none" stroke-width="1" /><rect x="733.2" y="492.1538461538462" width="211.6" height="6" rx="2" fill="#f3f4f6" stroke="none" stroke-width="1" /><rect x="958.8" y="492.1538461538462" width="211.6" height="6" rx="2" fill="#f3f4f6" stroke="none" stroke-width="1" /><rect x="1184.4" y="492.1538461538462" width="211.6" height="6" rx="2" fill="#f3f4f6" stroke="none" stroke-width="1" /><rect x="276.0" y="506.7692307692308" width="1128.0" height="23.23076923076923" rx="0" fill="#ffffff" stroke="#d9dce1" stroke-width="0.5" /><circle cx="286.0" cy="518.3846153846154" r="4" fill="#4b5059" stroke="#c3c8d0" stroke-width="0.8"/><rect x="296.0" y="515.3846153846154" width="195.6" height="6" rx="2" fill="#f3f4f6" stroke="none" stroke-width="1" /><rect x="507.6" y="515.3846153846154" width="211.6" height="6" rx="2" fill="#f3f4f6" stroke="none" stroke-width="1" /><rect x="733.2" y="515.3846153846154" width="211.6" height="6" rx="2" fill="#f3f4f6" stroke="none" stroke-width="1" /><rect x="958.8" y="515.3846153846154" width="211.6" height="6" rx="2" fill="#f3f4f6" stroke="none" stroke-width="1" /><rect x="1184.4" y="515.3846153846154" width="211.6" height="6" rx="2" fill="#f3f4f6" stroke="none" stroke-width="1" /><text x="1408.0" y="532" font-family="'Segoe UI', 'Helvetica Neue', Arial, sans-serif" font-size="10.5" fill="#5b7089" font-weight="600" text-anchor="end" >[DAT-07, DAT-06, DAT-04]</text><rect x="264.0" y="556" width="665.3333333333333" height="184" rx="6" fill="#f3f4f6" stroke="#c3c8d0" stroke-width="1" /><text x="276.0" y="574" font-family="'Segoe UI', 'Helvetica Neue', Arial, sans-serif" font-size="13" fill="#2b2f36" font-weight="700" text-anchor="start" >Exportación</text><text x="276.0" y="591" font-family="'Segoe UI', 'Helvetica Neue', Arial, sans-serif" font-size="11" fill="#6b7280" font-weight="normal" text-anchor="start" >Formatos para Data Science · retención de exports: 30 días</text><text x="276.0" y="606" font-family="'Segoe UI', 'Helvetica Neue', Arial, sans-serif" font-size="11" fill="#6b7280" font-weight="normal" text-anchor="start" >• Formatos: Parquet · CSV · JSON</text><text x="276.0" y="623" font-family="'Segoe UI', 'Helvetica Neue', Arial, sans-serif" font-size="11" fill="#6b7280" font-weight="normal" text-anchor="start" >• Metadatos en el header: usuario · fecha de exportación · medidor(es) · período · hash SHA-256</text><text x="276.0" y="640" font-family="'Segoe UI', 'Helvetica Neue', Arial, sans-serif" font-size="11" fill="#6b7280" font-weight="normal" text-anchor="start" >• El hash sella el archivo: permite verificar que la extracción no fue alterada</text><text x="921.3333333333333" y="732" font-family="'Segoe UI', 'Helvetica Neue', Arial, sans-serif" font-size="10.5" fill="#5b7089" font-weight="600" text-anchor="end" >[DAT-12, DAT-07, CYB-10]</text><rect x="264.0" y="756" width="124" height="40" rx="6" fill="#5b7089" stroke="#5b7089" stroke-width="1" /><text x="326.0" y="781.2" font-family="'Segoe UI', 'Helvetica Neue', Arial, sans-serif" font-size="12" fill="#ffffff" font-weight="600" text-anchor="middle" >Exportar Parquet</text><rect x="398.0" y="756" width="96" height="40" rx="6" fill="#ffffff" stroke="#5b7089" stroke-width="1" /><text x="446.0" y="781.2" font-family="'Segoe UI', 'Helvetica Neue', Arial, sans-serif" font-size="12" fill="#5b7089" font-weight="600" text-anchor="middle" >Exportar CSV</text><rect x="504.0" y="756" width="103" height="40" rx="6" fill="#ffffff" stroke="#5b7089" stroke-width="1" /><text x="555.5" y="781.2" font-family="'Segoe UI', 'Helvetica Neue', Arial, sans-serif" font-size="12" fill="#5b7089" font-weight="600" text-anchor="middle" >Exportar JSON</text><rect x="617.0" y="756" width="110" height="40" rx="6" fill="#ffffff" stroke="#5b7089" stroke-width="1" /><text x="672.0" y="781.2" font-family="'Segoe UI', 'Helvetica Neue', Arial, sans-serif" font-size="12" fill="#5b7089" font-weight="600" text-anchor="middle" >Verificar hash</text><rect x="945.3333333333333" y="556" width="470.66666666666663" height="240" rx="6" fill="#f3f4f6" stroke="#c3c8d0" stroke-width="1" /><text x="957.3333333333333" y="574" font-family="'Segoe UI', 'Helvetica Neue', Arial, sans-serif" font-size="13" fill="#2b2f36" font-weight="700" text-anchor="start" >Restricción DAT-30</text><text x="957.3333333333333" y="591" font-family="'Segoe UI', 'Helvetica Neue', Arial, sans-serif" font-size="11" fill="#6b7280" font-weight="normal" text-anchor="start" >Aviso permanente ligado a la exportación</text><text x="957.3333333333333" y="606" font-family="'Segoe UI', 'Helvetica Neue', Arial, sans-serif" font-size="11" fill="#6b7280" font-weight="normal" text-anchor="start" >• Los datos exportados NO pueden usarse para entrenar modelos de ML fuera de PASA.</text><text x="957.3333333333333" y="623" font-family="'Segoe UI', 'Helvetica Neue', Arial, sans-serif" font-size="11" fill="#6b7280" font-weight="normal" text-anchor="start" >• Restricción contractual y técnica de entrenamiento con datos de PASA.</text><text x="957.3333333333333" y="640" font-family="'Segoe UI', 'Helvetica Neue', Arial, sans-serif" font-size="11" fill="#6b7280" font-weight="normal" text-anchor="start" >• Aplica a Parquet, CSV y JSON descargados desde esta pantalla.</text><text x="1408.0" y="788" font-family="'Segoe UI', 'Helvetica Neue', Arial, sans-serif" font-size="10.5" fill="#5b7089" font-weight="600" text-anchor="end" >[DAT-30]</text></svg>